<?xml version="1.0" encoding="utf-8"?>
<!-- Generator: Adobe Illustrator 27.0.0, SVG Export Plug-In . SVG Version: 6.00 Build 0)  -->
<svg version="1.1" id="dbnomics-logo" xmlns="http://www.w3.org/2000/svg" xmlns:xlink="http://www.w3.org/1999/xlink" x="0px"
	 y="0px" viewBox="0 0 182.1 42.5" style="enable-background:new 0 0 182.1 42.5;" xml:space="preserve">
<style type="text/css">
	.st0{fill:#2A374D;}
	.st1{fill:#4D8BFF;}
	.st2{fill:#1F63D1;}
	.st3{fill:#717680;}
</style>
<path id="path1191" class="st0" d="M77.6,24.3L64.8,5v19.3h-2.6V0.2h2.4l12.8,19.2V0.2H80v24.1H77.6z M98.6,4c-2.3-2.3-6-2.3-8.3,0
	c0,0,0,0,0,0c-1.5,1.6-1.7,3.2-1.7,8.2s0.2,6.7,1.7,8.2c2.3,2.3,6,2.3,8.3,0c0,0,0,0,0,0c1.5-1.6,1.7-3.2,1.7-8.2S100.2,5.6,98.6,4
	 M100.6,22c-3.4,3.3-8.9,3.3-12.3,0c-2.3-2.3-2.3-4.6-2.3-9.7s0-7.5,2.3-9.7c3.4-3.3,8.9-3.3,12.3,0c2.3,2.3,2.3,4.6,2.3,9.7
	S102.9,19.7,100.6,22 M127,24.3V6l-6.6,14.5h-2.2L111.5,6v18.3H109V0.2h2.6l7.8,17.1L127,0.2h2.6v24.1L127,24.3z M136.5,0.2h2.6
	v24.1h-2.6V0.2z M153.6,24.5L153.6,24.5c-2.3,0-4.5-0.9-6.2-2.5c-2.3-2.3-2.3-4.6-2.3-9.7s0-7.5,2.3-9.7c1.6-1.6,3.9-2.5,6.2-2.5
	c4.3,0,7.5,2.6,8.4,7.2h-2.6c-0.4-2.8-2.9-4.9-5.7-4.9c-1.6,0-3.1,0.6-4.2,1.7c-1.5,1.6-1.7,3.2-1.7,8.3s0.2,6.7,1.7,8.3
	c2.3,2.3,6.1,2.2,8.3-0.1c0.8-0.8,1.4-1.9,1.6-3.1h2.6C161.4,21.5,157.8,24.6,153.6,24.5 M173.8,24.5c-3.6,0-6-0.9-8.3-3.2l1.8-1.8
	c1.7,1.8,4.1,2.8,6.6,2.6c3.5,0,5.7-1.7,5.7-4.5c0.1-1.1-0.3-2.2-1.1-3c-0.8-0.7-1.4-0.9-3.1-1.1l-2.8-0.4c-1.6-0.2-3.2-0.8-4.4-1.8
	c-1.3-1.2-1.9-2.8-1.8-4.5c0-4.1,2.9-6.8,7.7-6.8c2.7-0.1,5.2,0.8,7.2,2.6l-1.7,1.7c-1.5-1.4-3.5-2.2-5.6-2.1
	c-3.2,0-5.1,1.8-5.1,4.5c-0.1,1,0.3,2.1,1.1,2.8c1,0.7,2.1,1.2,3.2,1.3l2.6,0.4c1.6,0.1,3.1,0.7,4.4,1.7c1.4,1.2,2.1,3,2,4.8
	C182.1,21.9,178.8,24.5,173.8,24.5"/>
<path id="path1193" class="st1" d="M1.4,20.8h6.7c1.5,0.1,3-0.5,4.1-1.6c1.3-1.4,1.3-4,1.3-7.3s0-5.6-1.3-7
	c-1.1-1.1-2.6-1.7-4.1-1.6H1.4V0h7c2.3-0.1,4.5,0.7,6.2,2.3c2.6,2.6,2.4,6.1,2.4,9.6s0.2,7.3-2.4,9.9c-1.7,1.6-3.9,2.4-6.2,2.3h-7
	V20.8z M21.3,0h8.6c4.5,0,7.3,2.5,7.3,6.6c0,2.2-1.2,4.2-3.2,5.1c2.3,0.9,3.7,3.1,3.6,5.6c0,4.4-3,6.8-7.3,6.8h-8.9v-3.3h8.6
	c2.5,0,4-1.6,4-3.7s-1.4-3.7-4-3.7H25v-3.3h4.6c2.3,0,3.9-1.2,3.9-3.4s-1.6-3.5-3.9-3.5h-8.3V0z"/>
<path id="path1195" class="st2" d="M5.1,0H1.4v24.1h3.7V0z M25,0h-3.7v24.1H25V0z"/>
<path id="path1197" class="st1" d="M51.9,12c0,1.8-1.4,3.2-3.2,3.2c-1.8,0-3.2-1.4-3.2-3.2s1.4-3.2,3.2-3.2c0,0,0,0,0,0
	C50.5,8.9,51.9,10.3,51.9,12"/>
<g id="use1199" transform="translate(0 33.96)">
	<g id="use1130" transform="translate(0 0.751)">
		<path id="path911" class="st3" d="M2.4,7.8C2,7.8,1.6,7.7,1.3,7.4C1,7.1,0.9,6.7,0.9,6.3V2.7H0.2c-0.1,0-0.1,0-0.2-0.1
			C0,2.7,0,2.6,0,2.5V2.1L1,2l0.2-1.8c0-0.1,0-0.1,0.1-0.1C1.3,0,1.4,0,1.4,0h0.5v2h1.7v0.7H1.9v3.5c0,0.2,0,0.4,0.2,0.5
			C2.2,6.9,2.4,7,2.6,7c0.1,0,0.2,0,0.3,0c0.1,0,0.1-0.1,0.2-0.1c0.1,0,0.1-0.1,0.1-0.1c0,0,0.1,0,0.1,0c0.1,0,0.1,0,0.1,0.1
			l0.3,0.5C3.6,7.5,3.4,7.6,3.1,7.7C2.9,7.8,2.6,7.8,2.4,7.8L2.4,7.8z"/>
	</g>
	<g id="use1132" transform="translate(5.875 0)">
		<path id="path914" class="st3" d="M0,8.5V0h1v3.4C1.3,3.2,1.5,3,1.8,2.8c0.3-0.2,0.7-0.2,1-0.2c0.3,0,0.6,0,0.8,0.2
			C4,2.8,4.2,3,4.3,3.2c0.2,0.2,0.3,0.4,0.4,0.7c0.1,0.3,0.1,0.6,0.1,0.9v3.7h-1V4.8c0-0.4-0.1-0.7-0.3-1C3.3,3.5,2.9,3.3,2.6,3.4
			C2.3,3.4,2,3.4,1.7,3.6C1.5,3.7,1.2,3.9,1,4.2v4.3L0,8.5z"/>
	</g>
	<g id="use1134" transform="translate(12.849 2.552)">
		<path id="path917" class="st3" d="M2.7,0c0.3,0,0.7,0.1,1,0.2C4,0.3,4.2,0.5,4.4,0.7c0.2,0.2,0.4,0.5,0.5,0.8
			c0.1,0.4,0.2,0.7,0.2,1.1c0,0.1,0,0.2-0.1,0.3C5,3,5,3,4.9,3H1c0,0.3,0.1,0.6,0.1,1c0.1,0.3,0.2,0.5,0.4,0.7
			C1.7,4.8,1.9,5,2.1,5.1c0.2,0.1,0.5,0.1,0.7,0.1c0.2,0,0.4,0,0.7-0.1C3.7,5.1,3.9,5,4,4.9c0.1-0.1,0.2-0.1,0.3-0.2
			c0.1-0.1,0.1-0.1,0.2-0.1c0.1,0,0.2,0,0.2,0.1l0.3,0.4C4.9,5.3,4.8,5.4,4.6,5.5C4.4,5.6,4.2,5.7,4,5.8C3.8,5.9,3.6,5.9,3.4,5.9
			C3.2,6,3,6,2.8,6C2.4,6,2,5.9,1.7,5.8C1.3,5.7,1,5.5,0.8,5.2c-0.3-0.3-0.5-0.6-0.6-1C0.1,3.8,0,3.3,0,2.9c0-0.4,0.1-0.8,0.2-1.1
			c0.1-0.3,0.3-0.7,0.5-0.9C1,0.6,1.3,0.4,1.6,0.2C1.9,0.1,2.3,0,2.7,0L2.7,0z M2.7,0.8c-0.4,0-0.9,0.1-1.2,0.4
			C1.3,1.5,1.1,1.9,1,2.4h3.2c0-0.2,0-0.4-0.1-0.6C4.1,1.5,4,1.4,3.8,1.2C3.7,1.1,3.5,0.9,3.4,0.9C3.2,0.8,3,0.8,2.7,0.8L2.7,0.8z"
			/>
	</g>
	<g id="use1138" transform="translate(22.955 2.633)">
		<path id="path920" class="st3" d="M0,0h0.8C0.9,0,0.9,0,1,0.1c0.1,0,0.1,0.1,0.1,0.1L2.2,4c0,0.1,0.1,0.3,0.1,0.4s0,0.3,0.1,0.4
			c0-0.1,0.1-0.3,0.1-0.4S2.6,4.1,2.6,4l1.2-3.8c0-0.1,0.1-0.1,0.1-0.1C4,0,4.1,0,4.1,0h0.4c0.1,0,0.1,0,0.2,0.1
			c0,0,0.1,0.1,0.1,0.1L6.1,4c0,0.1,0.1,0.3,0.1,0.4s0.1,0.3,0.1,0.4c0-0.1,0-0.3,0.1-0.4S6.4,4.1,6.4,4l1.1-3.7
			c0-0.1,0.1-0.1,0.1-0.2C7.7,0,7.8,0,7.9,0h0.8L6.8,5.8H6c-0.1,0-0.2-0.1-0.2-0.2L4.5,1.7c0-0.1-0.1-0.2-0.1-0.3
			c0-0.1,0-0.2-0.1-0.3c0,0.1,0,0.2-0.1,0.3c0,0.1,0,0.2-0.1,0.3L2.9,5.6c0,0.1-0.1,0.2-0.2,0.2H1.9L0,0z"/>
	</g>
	<g id="use1140" transform="translate(33.089 2.552)">
		<path id="path923" class="st3" d="M2.8,0c0.4,0,0.8,0.1,1.2,0.2c0.3,0.1,0.6,0.3,0.9,0.6c0.2,0.3,0.4,0.6,0.6,0.9
			C5.5,2.2,5.6,2.6,5.6,3c0,0.4-0.1,0.8-0.2,1.2C5.2,4.6,5.1,4.9,4.8,5.2C4.6,5.4,4.3,5.6,3.9,5.8C3.6,5.9,3.2,6,2.8,6
			C2.4,6,2,5.9,1.6,5.8C1.3,5.6,1,5.4,0.8,5.2C0.5,4.9,0.3,4.6,0.2,4.2C0.1,3.8,0,3.4,0,3c0-0.4,0.1-0.8,0.2-1.2
			c0.1-0.4,0.3-0.7,0.6-0.9C1,0.6,1.3,0.3,1.6,0.2C2,0.1,2.4,0,2.8,0z M2.8,5.2c0.5,0,1-0.2,1.3-0.6c0.3-0.5,0.5-1,0.4-1.6
			c0-0.6-0.1-1.1-0.4-1.6C3.8,1,3.3,0.8,2.8,0.8C2.5,0.8,2.3,0.9,2,1C1.8,1.1,1.6,1.2,1.5,1.4C1.3,1.6,1.2,1.8,1.2,2.1
			C1.1,2.4,1.1,2.7,1.1,3c0,0.3,0,0.6,0.1,0.9c0.1,0.2,0.2,0.5,0.3,0.7C1.6,4.8,1.8,5,2,5.1C2.3,5.2,2.5,5.2,2.8,5.2L2.8,5.2z"/>
	</g>
	<g id="use1142" transform="translate(40.909 2.539)">
		<path id="path926" class="st3" d="M0,5.9V0.1h0.6c0.1,0,0.2,0,0.2,0.1c0.1,0.1,0.1,0.1,0.1,0.2L1,1.3c0.2-0.4,0.4-0.7,0.7-1
			C2,0.1,2.4,0,2.7,0C2.9,0,3,0,3.2,0.1c0.1,0,0.2,0.1,0.4,0.2L3.4,1c0,0.1-0.1,0.1-0.2,0.1c-0.1,0-0.2,0-0.2-0.1C2.8,1,2.7,1,2.5,1
			C2.2,1,1.9,1.1,1.6,1.3C1.4,1.6,1.1,1.9,1,2.2v3.7L0,5.9z"/>
	</g>
	<g id="use1144" transform="translate(46.655 0)">
		<path id="path929" class="st3" d="M1,0v8.5H0V0H1z"/>
	</g>
	<g id="use1146" transform="translate(50.055 0)">
		<path id="path932" class="st3" d="M4.5,8.5c-0.1,0-0.2-0.1-0.3-0.2L4.2,7.5C3.9,7.8,3.6,8.1,3.3,8.3C3,8.5,2.6,8.6,2.2,8.5
			c-0.3,0-0.6-0.1-0.9-0.2C1,8.2,0.8,8,0.6,7.8C0.4,7.5,0.2,7.2,0.1,6.9C0,6.4,0,6,0,5.6C0,5.2,0,4.8,0.2,4.4c0.1-0.3,0.3-0.7,0.5-1
			c0.2-0.3,0.5-0.5,0.8-0.6c0.3-0.2,0.7-0.2,1.1-0.2c0.3,0,0.6,0.1,0.9,0.2C3.7,2.8,3.9,3,4.1,3.2V0h1v8.5L4.5,8.5z M2.5,7.7
			c0.3,0,0.6-0.1,0.9-0.2c0.3-0.2,0.5-0.4,0.7-0.6V4C4,3.8,3.7,3.6,3.5,3.5C3.3,3.4,3,3.3,2.8,3.3c-0.5,0-1,0.2-1.3,0.6
			C1.2,4.4,1,5,1.1,5.6c0,0.3,0,0.7,0.1,1C1.2,6.8,1.3,7,1.4,7.2c0.1,0.2,0.3,0.3,0.5,0.4C2.1,7.7,2.3,7.7,2.5,7.7L2.5,7.7z"/>
	</g>
	<g id="use1148" transform="translate(57.941 0.229)">
		<path id="path935" class="st3" d="M0.9,0v1.7L0.8,2.6c0,0.1,0,0.2-0.1,0.3C0.6,2.9,0.5,3,0.4,2.9c-0.1,0-0.2,0-0.2-0.1
			C0.1,2.8,0.1,2.7,0.1,2.6L0,1.7V0H0.9z"/>
	</g>
	<g id="use1150" transform="translate(61.067 2.551)">
		<path id="path938" class="st3" d="M3.8,1.1c0,0.1-0.1,0.1-0.2,0.1c-0.1,0-0.1,0-0.2-0.1C3.3,1.1,3.2,1,3.1,1
			C3,0.9,2.9,0.9,2.8,0.8c-0.2,0-0.3-0.1-0.5-0.1c-0.2,0-0.3,0-0.5,0.1C1.6,0.9,1.5,0.9,1.4,1C1.3,1.1,1.3,1.2,1.2,1.3
			C1.1,1.4,1.1,1.5,1.1,1.6c0,0.1,0,0.3,0.1,0.4c0.1,0.1,0.2,0.2,0.3,0.3c0.2,0.1,0.3,0.1,0.5,0.2c0.2,0.1,0.4,0.1,0.6,0.2
			C2.8,2.7,3,2.7,3.2,2.8C3.4,2.9,3.5,3,3.7,3.1C3.8,3.2,3.9,3.4,4,3.5c0.1,0.2,0.1,0.4,0.1,0.6c0,0.3,0,0.5-0.1,0.7
			C3.9,5.1,3.8,5.3,3.6,5.5C3.4,5.6,3.1,5.8,2.9,5.9C2.6,6,2.3,6,1.9,6C1.6,6,1.2,5.9,0.8,5.8C0.5,5.7,0.2,5.5,0,5.3l0.2-0.4
			c0,0,0.1-0.1,0.1-0.1c0.1,0,0.1,0,0.2,0c0.1,0,0.2,0,0.2,0.1C0.8,4.9,0.9,5,1,5c0.1,0.1,0.3,0.1,0.4,0.2C1.6,5.3,1.8,5.3,2,5.3
			c0.2,0,0.4,0,0.5-0.1c0.1,0,0.3-0.1,0.4-0.2C3,4.9,3.1,4.8,3.1,4.7c0-0.1,0.1-0.2,0.1-0.4c0-0.1,0-0.3-0.1-0.4
			C3,3.8,2.8,3.7,2.7,3.6C2.6,3.6,2.4,3.5,2.2,3.4L1.7,3.3C1.5,3.2,1.3,3.1,1.1,3.1C0.9,3,0.8,2.9,0.6,2.8C0.5,2.6,0.4,2.5,0.3,2.3
			C0.2,2.1,0.1,1.9,0.2,1.7c0-0.2,0-0.4,0.1-0.6c0.1-0.2,0.2-0.4,0.4-0.5c0.2-0.2,0.4-0.3,0.6-0.4C1.6,0,1.9,0,2.2,0
			c0.4,0,0.7,0.1,1,0.2C3.5,0.3,3.8,0.5,4,0.7L3.8,1.1z"/>
	</g>
	<g id="use1154" transform="translate(70.55 2.552)">
		<path id="path917-2" class="st3" d="M2.7,0c0.3,0,0.7,0.1,1,0.2C4,0.3,4.2,0.5,4.4,0.7c0.2,0.2,0.4,0.5,0.5,0.8
			c0.1,0.4,0.2,0.7,0.2,1.1c0,0.1,0,0.2-0.1,0.3C5,3,5,3,4.9,3H1c0,0.3,0.1,0.6,0.1,1c0.1,0.3,0.2,0.5,0.4,0.7
			C1.7,4.8,1.9,5,2.1,5.1c0.2,0.1,0.5,0.1,0.7,0.1c0.2,0,0.4,0,0.7-0.1C3.7,5.1,3.9,5,4,4.9c0.1-0.1,0.2-0.1,0.3-0.2
			c0.1-0.1,0.1-0.1,0.2-0.1c0.1,0,0.2,0,0.2,0.1l0.3,0.4C4.9,5.3,4.8,5.4,4.6,5.5C4.4,5.6,4.2,5.7,4,5.8C3.8,5.9,3.6,5.9,3.4,5.9
			C3.2,6,3,6,2.8,6C2.4,6,2,5.9,1.7,5.8C1.3,5.7,1,5.5,0.8,5.2c-0.3-0.3-0.5-0.6-0.6-1C0.1,3.8,0,3.3,0,2.9c0-0.4,0.1-0.8,0.2-1.1
			c0.1-0.3,0.3-0.7,0.5-0.9C1,0.6,1.3,0.4,1.6,0.2C1.9,0.1,2.3,0,2.7,0L2.7,0z M2.7,0.8c-0.4,0-0.9,0.1-1.2,0.4
			C1.3,1.5,1.1,1.9,1,2.4h3.2c0-0.2,0-0.4-0.1-0.6C4.1,1.5,4,1.4,3.8,1.2C3.7,1.1,3.5,0.9,3.4,0.9C3.2,0.8,3,0.8,2.7,0.8L2.7,0.8z"
			/>
	</g>
	<g id="use1156" transform="translate(77.573 2.552)">
		<path id="path941" class="st3" d="M4.4,1.1c0,0-0.1,0.1-0.1,0.1c0,0-0.1,0-0.1,0C4.1,1.3,4,1.2,4,1.2C3.9,1.1,3.8,1.1,3.7,1
			C3.6,1,3.5,0.9,3.3,0.9C3.2,0.8,3,0.8,2.8,0.8C2.5,0.8,2.3,0.8,2,1C1.8,1.1,1.6,1.2,1.5,1.4C1.3,1.6,1.2,1.8,1.2,2.1
			C1.1,2.4,1,2.7,1.1,3c0,0.3,0,0.6,0.1,0.9c0.1,0.2,0.2,0.5,0.3,0.7C1.7,4.8,1.8,5,2,5.1c0.2,0.1,0.5,0.1,0.7,0.1
			c0.2,0,0.4,0,0.6-0.1c0.1,0,0.3-0.1,0.4-0.2C3.9,4.8,4,4.8,4,4.7c0.1-0.1,0.1-0.1,0.2-0.1c0.1,0,0.2,0,0.2,0.1l0.3,0.4
			c-0.3,0.3-0.6,0.5-1,0.7C3.4,5.9,3,6,2.6,6c-0.3,0-0.7-0.1-1-0.2C1.2,5.7,1,5.5,0.7,5.2C0.5,4.9,0.3,4.6,0.2,4.3
			C0.1,3.9,0,3.4,0,3c0-0.4,0.1-0.8,0.2-1.2c0.1-0.3,0.3-0.7,0.5-1c0.2-0.3,0.5-0.5,0.9-0.6C1.9,0.1,2.3,0,2.7,0
			c0.4,0,0.7,0.1,1.1,0.2c0.3,0.1,0.6,0.3,0.8,0.6L4.4,1.1z"/>
	</g>
	<g id="use1158" transform="translate(83.928 2.552)">
		<path id="path923-2" class="st3" d="M2.8,0c0.4,0,0.8,0.1,1.2,0.2c0.3,0.1,0.6,0.3,0.9,0.6c0.2,0.3,0.4,0.6,0.6,0.9
			C5.5,2.2,5.6,2.6,5.6,3c0,0.4-0.1,0.8-0.2,1.2C5.2,4.6,5.1,4.9,4.8,5.2C4.6,5.4,4.3,5.6,3.9,5.8C3.6,5.9,3.2,6,2.8,6
			C2.4,6,2,5.9,1.6,5.8C1.3,5.6,1,5.4,0.8,5.2C0.5,4.9,0.3,4.6,0.2,4.2C0.1,3.8,0,3.4,0,3c0-0.4,0.1-0.8,0.2-1.2
			c0.1-0.4,0.3-0.7,0.6-0.9C1,0.6,1.3,0.3,1.6,0.2C2,0.1,2.4,0,2.8,0z M2.8,5.2c0.5,0,1-0.2,1.3-0.6c0.3-0.5,0.5-1,0.4-1.6
			c0-0.6-0.1-1.1-0.4-1.6C3.8,1,3.3,0.8,2.8,0.8C2.5,0.8,2.3,0.9,2,1C1.8,1.1,1.6,1.2,1.5,1.4C1.3,1.6,1.2,1.8,1.2,2.1
			C1.1,2.4,1.1,2.7,1.1,3c0,0.3,0,0.6,0.1,0.9c0.1,0.2,0.2,0.5,0.3,0.7C1.6,4.8,1.8,5,2,5.1C2.3,5.2,2.5,5.2,2.8,5.2L2.8,5.2z"/>
	</g>
	<g id="use1160" transform="translate(91.748 2.552)">
		<path id="path944" class="st3" d="M0,5.9V0.1h0.6c0.1,0,0.2,0.1,0.3,0.2L1,0.9c0.2-0.3,0.5-0.5,0.8-0.7C2.1,0.1,2.5,0,2.9,0
			c0.3,0,0.6,0,0.8,0.2C4,0.3,4.2,0.4,4.3,0.6c0.2,0.2,0.3,0.4,0.4,0.7c0.1,0.3,0.1,0.6,0.1,0.9v3.7h-1V2.2c0-0.4-0.1-0.7-0.3-1
			C3.3,0.9,2.9,0.8,2.6,0.8C2.3,0.8,2,0.9,1.7,1C1.5,1.2,1.2,1.4,1,1.6v4.3H0z"/>
	</g>
	<g id="use1162" transform="translate(98.71 2.552)">
		<path id="path923-3" class="st3" d="M2.8,0c0.4,0,0.8,0.1,1.2,0.2c0.3,0.1,0.6,0.3,0.9,0.6c0.2,0.3,0.4,0.6,0.6,0.9
			C5.5,2.2,5.6,2.6,5.6,3c0,0.4-0.1,0.8-0.2,1.2C5.2,4.6,5.1,4.9,4.8,5.2C4.6,5.4,4.3,5.6,3.9,5.8C3.6,5.9,3.2,6,2.8,6
			C2.4,6,2,5.9,1.6,5.8C1.3,5.6,1,5.4,0.8,5.2C0.5,4.9,0.3,4.6,0.2,4.2C0.1,3.8,0,3.4,0,3c0-0.4,0.1-0.8,0.2-1.2
			c0.1-0.4,0.3-0.7,0.6-0.9C1,0.6,1.3,0.3,1.6,0.2C2,0.1,2.4,0,2.8,0z M2.8,5.2c0.5,0,1-0.2,1.3-0.6c0.3-0.5,0.5-1,0.4-1.6
			c0-0.6-0.1-1.1-0.4-1.6C3.8,1,3.3,0.8,2.8,0.8C2.5,0.8,2.3,0.9,2,1C1.8,1.1,1.6,1.2,1.5,1.4C1.3,1.6,1.2,1.8,1.2,2.1
			C1.1,2.4,1.1,2.7,1.1,3c0,0.3,0,0.6,0.1,0.9c0.1,0.2,0.2,0.5,0.3,0.7C1.6,4.8,1.8,5,2,5.1C2.3,5.2,2.5,5.2,2.8,5.2L2.8,5.2z"/>
	</g>
	<g id="use1164" transform="translate(106.529 2.552)">
		<path id="path947" class="st3" d="M0,5.9V0.1h0.6c0.1,0,0.2,0.1,0.3,0.2L1,0.9c0.2-0.3,0.4-0.5,0.7-0.6C2,0.1,2.3,0,2.6,0
			c0.3,0,0.7,0.1,1,0.3C3.8,0.6,4,0.9,4.1,1.2C4.2,1,4.3,0.8,4.4,0.7c0.1-0.1,0.3-0.3,0.4-0.4C5,0.2,5.2,0.1,5.4,0.1
			C5.6,0,5.8,0,5.9,0c0.3,0,0.6,0,0.8,0.1C7,0.2,7.2,0.4,7.4,0.6C7.5,0.8,7.7,1,7.8,1.3c0.1,0.3,0.1,0.6,0.1,0.9v3.7h-1V2.2
			c0-0.4-0.1-0.7-0.3-1C6.3,0.9,6,0.8,5.7,0.8c-0.2,0-0.3,0-0.5,0.1C5.1,1,4.9,1.1,4.8,1.2C4.7,1.3,4.6,1.4,4.5,1.6
			C4.5,1.8,4.4,2,4.4,2.2v3.7h-1V2.2c0-0.4-0.1-0.7-0.3-1C2.9,0.9,2.6,0.8,2.3,0.8C2.1,0.8,1.8,0.9,1.6,1C1.4,1.2,1.2,1.4,1,1.6v4.3
			L0,5.9z"/>
	</g>
	<g id="use1166" transform="translate(116.871 0.082)">
		<path id="path950" class="st3" d="M1.2,2.6v5.8h-1V2.6H1.2z M1.5,0.7c0,0.1,0,0.2-0.1,0.3c0,0.1-0.1,0.2-0.2,0.2
			C1.2,1.3,1.1,1.4,1,1.4c-0.1,0-0.2,0.1-0.3,0.1c-0.1,0-0.2,0-0.3-0.1c-0.1,0-0.2-0.1-0.2-0.2C0.1,1.2,0.1,1.1,0.1,1
			C0,0.9,0,0.8,0,0.7c0-0.1,0-0.2,0.1-0.3c0-0.1,0.1-0.2,0.2-0.2c0.1-0.1,0.1-0.1,0.2-0.2C0.5,0,0.6,0,0.7,0c0.2,0,0.4,0.1,0.5,0.2
			c0.1,0.1,0.1,0.1,0.2,0.2C1.4,0.5,1.5,0.6,1.5,0.7L1.5,0.7z"/>
	</g>
	<g id="use1168" transform="translate(120.492 2.552)">
		<path id="path941-2" class="st3" d="M4.4,1.1c0,0-0.1,0.1-0.1,0.1c0,0-0.1,0-0.1,0C4.1,1.3,4,1.2,4,1.2C3.9,1.1,3.8,1.1,3.7,1
			C3.6,1,3.5,0.9,3.3,0.9C3.2,0.8,3,0.8,2.8,0.8C2.5,0.8,2.3,0.8,2,1C1.8,1.1,1.6,1.2,1.5,1.4C1.3,1.6,1.2,1.8,1.2,2.1
			C1.1,2.4,1,2.7,1.1,3c0,0.3,0,0.6,0.1,0.9c0.1,0.2,0.2,0.5,0.3,0.7C1.7,4.8,1.8,5,2,5.1c0.2,0.1,0.5,0.1,0.7,0.1
			c0.2,0,0.4,0,0.6-0.1c0.1,0,0.3-0.1,0.4-0.2C3.9,4.8,4,4.8,4,4.7c0.1-0.1,0.1-0.1,0.2-0.1c0.1,0,0.2,0,0.2,0.1l0.3,0.4
			c-0.3,0.3-0.6,0.5-1,0.7C3.4,5.9,3,6,2.6,6c-0.3,0-0.7-0.1-1-0.2C1.2,5.7,1,5.5,0.7,5.2C0.5,4.9,0.3,4.6,0.2,4.3
			C0.1,3.9,0,3.4,0,3c0-0.4,0.1-0.8,0.2-1.2c0.1-0.3,0.3-0.7,0.5-1c0.2-0.3,0.5-0.5,0.9-0.6C1.9,0.1,2.3,0,2.7,0
			c0.4,0,0.7,0.1,1.1,0.2c0.3,0.1,0.6,0.3,0.8,0.6L4.4,1.1z"/>
	</g>
	<g id="use1172" transform="translate(130.273 0)">
		<path id="path932-2" class="st3" d="M4.5,8.5c-0.1,0-0.2-0.1-0.3-0.2L4.2,7.5C3.9,7.8,3.6,8.1,3.3,8.3C3,8.5,2.6,8.6,2.2,8.5
			c-0.3,0-0.6-0.1-0.9-0.2C1,8.2,0.8,8,0.6,7.8C0.4,7.5,0.2,7.2,0.1,6.9C0,6.4,0,6,0,5.6C0,5.2,0,4.8,0.2,4.4c0.1-0.3,0.3-0.7,0.5-1
			c0.2-0.3,0.5-0.5,0.8-0.6c0.3-0.2,0.7-0.2,1.1-0.2c0.3,0,0.6,0.1,0.9,0.2C3.7,2.8,3.9,3,4.1,3.2V0h1v8.5L4.5,8.5z M2.5,7.7
			c0.3,0,0.6-0.1,0.9-0.2c0.3-0.2,0.5-0.4,0.7-0.6V4C4,3.8,3.7,3.6,3.5,3.5C3.3,3.4,3,3.3,2.8,3.3c-0.5,0-1,0.2-1.3,0.6
			C1.2,4.4,1,5,1.1,5.6c0,0.3,0,0.7,0.1,1C1.2,6.8,1.3,7,1.4,7.2c0.1,0.2,0.3,0.3,0.5,0.4C2.1,7.7,2.3,7.7,2.5,7.7L2.5,7.7z"/>
	</g>
	<g id="use1174" transform="translate(137.816 2.54)">
		<path id="path953" class="st3" d="M4.6,5.9H4.1c-0.1,0-0.2,0-0.2,0c-0.1,0-0.1-0.1-0.1-0.2L3.7,5.1C3.5,5.3,3.4,5.4,3.2,5.5
			C3.1,5.6,2.9,5.7,2.7,5.8C2.6,5.9,2.4,5.9,2.2,6C2,6,1.8,6,1.6,6C1.4,6,1.2,6,1,5.9C0.8,5.9,0.6,5.8,0.5,5.6
			C0.3,5.5,0.2,5.3,0.1,5.2C0,4.9,0,4.7,0,4.5C0,4.2,0.1,4,0.2,3.8c0.2-0.2,0.4-0.4,0.6-0.6c0.3-0.2,0.7-0.3,1.1-0.4
			C2.5,2.7,3,2.7,3.6,2.7V2.2c0-0.4-0.1-0.7-0.3-1C3.1,0.9,2.8,0.8,2.4,0.8c-0.2,0-0.4,0-0.6,0.1C1.7,1,1.5,1.1,1.4,1.1
			C1.3,1.2,1.1,1.3,1,1.4C1,1.4,0.9,1.4,0.8,1.4c-0.1,0-0.1,0-0.2-0.1c-0.1,0-0.1-0.1-0.1-0.1L0.3,0.9c0.3-0.3,0.7-0.5,1-0.7
			C1.7,0.1,2.1,0,2.6,0C2.9,0,3.2,0,3.4,0.2c0.2,0.1,0.5,0.3,0.6,0.4C4.2,0.8,4.4,1,4.5,1.3c0.1,0.3,0.1,0.6,0.1,0.9L4.6,5.9z
			 M1.9,5.3c0.2,0,0.3,0,0.5-0.1c0.1,0,0.3-0.1,0.4-0.2C3,5,3.1,4.9,3.2,4.8c0.1-0.1,0.2-0.2,0.4-0.3V3.3c-0.4,0-0.8,0-1.2,0.1
			c-0.3,0-0.5,0.1-0.8,0.2C1.4,3.7,1.2,3.8,1.1,4C1,4.1,1,4.3,1,4.4c0,0.1,0,0.3,0.1,0.4c0,0.1,0.1,0.2,0.2,0.3
			c0.1,0.1,0.2,0.1,0.3,0.2C1.7,5.3,1.8,5.3,1.9,5.3L1.9,5.3z"/>
	</g>
	<g id="use1176" transform="translate(144.366 0.751)">
		<path id="path911-2" class="st3" d="M2.4,7.8C2,7.8,1.6,7.7,1.3,7.4C1,7.1,0.9,6.7,0.9,6.3V2.7H0.2c-0.1,0-0.1,0-0.2-0.1
			C0,2.7,0,2.6,0,2.5V2.1L1,2l0.2-1.8c0-0.1,0-0.1,0.1-0.1C1.3,0,1.4,0,1.4,0h0.5v2h1.7v0.7H1.9v3.5c0,0.2,0,0.4,0.2,0.5
			C2.2,6.9,2.4,7,2.6,7c0.1,0,0.2,0,0.3,0c0.1,0,0.1-0.1,0.2-0.1c0.1,0,0.1-0.1,0.1-0.1c0,0,0.1,0,0.1,0c0.1,0,0.1,0,0.1,0.1
			l0.3,0.5C3.6,7.5,3.4,7.6,3.1,7.7C2.9,7.8,2.6,7.8,2.4,7.8L2.4,7.8z"/>
	</g>
	<g id="use1178" transform="translate(149.931 2.54)">
		<path id="path953-2" class="st3" d="M4.6,5.9H4.1c-0.1,0-0.2,0-0.2,0c-0.1,0-0.1-0.1-0.1-0.2L3.7,5.1C3.5,5.3,3.4,5.4,3.2,5.5
			C3.1,5.6,2.9,5.7,2.7,5.8C2.6,5.9,2.4,5.9,2.2,6C2,6,1.8,6,1.6,6C1.4,6,1.2,6,1,5.9C0.8,5.9,0.6,5.8,0.5,5.6
			C0.3,5.5,0.2,5.3,0.1,5.2C0,4.9,0,4.7,0,4.5C0,4.2,0.1,4,0.2,3.8c0.2-0.2,0.4-0.4,0.6-0.6c0.3-0.2,0.7-0.3,1.1-0.4
			C2.5,2.7,3,2.7,3.6,2.7V2.2c0-0.4-0.1-0.7-0.3-1C3.1,0.9,2.8,0.8,2.4,0.8c-0.2,0-0.4,0-0.6,0.1C1.7,1,1.5,1.1,1.4,1.1
			C1.3,1.2,1.1,1.3,1,1.4C1,1.4,0.9,1.4,0.8,1.4c-0.1,0-0.1,0-0.2-0.1c-0.1,0-0.1-0.1-0.1-0.1L0.3,0.9c0.3-0.3,0.7-0.5,1-0.7
			C1.7,0.1,2.1,0,2.6,0C2.9,0,3.2,0,3.4,0.2c0.2,0.1,0.5,0.3,0.6,0.4C4.2,0.8,4.4,1,4.5,1.3c0.1,0.3,0.1,0.6,0.1,0.9L4.6,5.9z
			 M1.9,5.3c0.2,0,0.3,0,0.5-0.1c0.1,0,0.3-0.1,0.4-0.2C3,5,3.1,4.9,3.2,4.8c0.1-0.1,0.2-0.2,0.4-0.3V3.3c-0.4,0-0.8,0-1.2,0.1
			c-0.3,0-0.5,0.1-0.8,0.2C1.4,3.7,1.2,3.8,1.1,4C1,4.1,1,4.3,1,4.4c0,0.1,0,0.3,0.1,0.4c0,0.1,0.1,0.2,0.2,0.3
			c0.1,0.1,0.2,0.1,0.3,0.2C1.7,5.3,1.8,5.3,1.9,5.3L1.9,5.3z"/>
	</g>
	<g id="use1180" transform="translate(157.101 0)">
		<path id="path956" class="st3" d="M0,8.5V0h1v3.5C1.3,3.2,1.5,3,1.9,2.8c0.3-0.2,0.7-0.3,1.1-0.3c0.3,0,0.6,0.1,0.9,0.2
			c0.3,0.1,0.5,0.3,0.7,0.6C4.7,3.6,4.9,3.9,5,4.2c0.1,0.4,0.2,0.8,0.2,1.3c0,0.4-0.1,0.8-0.2,1.2c-0.1,0.3-0.3,0.7-0.5,1
			C4.2,7.9,4,8.2,3.7,8.3C3.3,8.5,3,8.6,2.6,8.5c-0.3,0-0.7-0.1-1-0.2C1.4,8.2,1.2,8,1,7.7l0,0.5c0,0.1-0.1,0.2-0.3,0.2L0,8.5z
			 M2.6,3.4C2.3,3.4,2,3.4,1.7,3.6C1.5,3.8,1.2,4,1,4.2v2.8c0.2,0.2,0.4,0.4,0.6,0.5c0.2,0.1,0.5,0.2,0.8,0.2c0.5,0,1-0.2,1.3-0.6
			C4,6.7,4.1,6.1,4.1,5.5c0-0.3,0-0.7-0.1-1C3.9,4.3,3.8,4.1,3.7,3.9C3.6,3.7,3.4,3.6,3.2,3.5C3,3.4,2.8,3.4,2.6,3.4L2.6,3.4z"/>
	</g>
	<g id="use1182" transform="translate(164.184 2.54)">
		<path id="path953-3" class="st3" d="M4.6,5.9H4.1c-0.1,0-0.2,0-0.2,0c-0.1,0-0.1-0.1-0.1-0.2L3.7,5.1C3.5,5.3,3.4,5.4,3.2,5.5
			C3.1,5.6,2.9,5.7,2.7,5.8C2.6,5.9,2.4,5.9,2.2,6C2,6,1.8,6,1.6,6C1.4,6,1.2,6,1,5.9C0.8,5.9,0.6,5.8,0.5,5.6
			C0.3,5.5,0.2,5.3,0.1,5.2C0,4.9,0,4.7,0,4.5C0,4.2,0.1,4,0.2,3.8c0.2-0.2,0.4-0.4,0.6-0.6c0.3-0.2,0.7-0.3,1.1-0.4
			C2.5,2.7,3,2.7,3.6,2.7V2.2c0-0.4-0.1-0.7-0.3-1C3.1,0.9,2.8,0.8,2.4,0.8c-0.2,0-0.4,0-0.6,0.1C1.7,1,1.5,1.1,1.4,1.1
			C1.3,1.2,1.1,1.3,1,1.4C1,1.4,0.9,1.4,0.8,1.4c-0.1,0-0.1,0-0.2-0.1c-0.1,0-0.1-0.1-0.1-0.1L0.3,0.9c0.3-0.3,0.7-0.5,1-0.7
			C1.7,0.1,2.1,0,2.6,0C2.9,0,3.2,0,3.4,0.2c0.2,0.1,0.5,0.3,0.6,0.4C4.2,0.8,4.4,1,4.5,1.3c0.1,0.3,0.1,0.6,0.1,0.9L4.6,5.9z
			 M1.9,5.3c0.2,0,0.3,0,0.5-0.1c0.1,0,0.3-0.1,0.4-0.2C3,5,3.1,4.9,3.2,4.8c0.1-0.1,0.2-0.2,0.4-0.3V3.3c-0.4,0-0.8,0-1.2,0.1
			c-0.3,0-0.5,0.1-0.8,0.2C1.4,3.7,1.2,3.8,1.1,4C1,4.1,1,4.3,1,4.4c0,0.1,0,0.3,0.1,0.4c0,0.1,0.1,0.2,0.2,0.3
			c0.1,0.1,0.2,0.1,0.3,0.2C1.7,5.3,1.8,5.3,1.9,5.3L1.9,5.3z"/>
	</g>
	<g id="use1184" transform="translate(170.836 2.551)">
		<path id="path938-2" class="st3" d="M3.8,1.1c0,0.1-0.1,0.1-0.2,0.1c-0.1,0-0.1,0-0.2-0.1C3.3,1.1,3.2,1,3.1,1
			C3,0.9,2.9,0.9,2.8,0.8c-0.2,0-0.3-0.1-0.5-0.1c-0.2,0-0.3,0-0.5,0.1C1.6,0.9,1.5,0.9,1.4,1C1.3,1.1,1.3,1.2,1.2,1.3
			C1.1,1.4,1.1,1.5,1.1,1.6c0,0.1,0,0.3,0.1,0.4c0.1,0.1,0.2,0.2,0.3,0.3c0.2,0.1,0.3,0.1,0.5,0.2c0.2,0.1,0.4,0.1,0.6,0.2
			C2.8,2.7,3,2.7,3.2,2.8C3.4,2.9,3.5,3,3.7,3.1C3.8,3.2,3.9,3.4,4,3.5c0.1,0.2,0.1,0.4,0.1,0.6c0,0.3,0,0.5-0.1,0.7
			C3.9,5.1,3.8,5.3,3.6,5.5C3.4,5.6,3.1,5.8,2.9,5.9C2.6,6,2.3,6,1.9,6C1.6,6,1.2,5.9,0.8,5.8C0.5,5.7,0.2,5.5,0,5.3l0.2-0.4
			c0,0,0.1-0.1,0.1-0.1c0.1,0,0.1,0,0.2,0c0.1,0,0.2,0,0.2,0.1C0.8,4.9,0.9,5,1,5c0.1,0.1,0.3,0.1,0.4,0.2C1.6,5.3,1.8,5.3,2,5.3
			c0.2,0,0.4,0,0.5-0.1c0.1,0,0.3-0.1,0.4-0.2C3,4.9,3.1,4.8,3.1,4.7c0-0.1,0.1-0.2,0.1-0.4c0-0.1,0-0.3-0.1-0.4
			C3,3.8,2.8,3.7,2.7,3.6C2.6,3.6,2.4,3.5,2.2,3.4L1.7,3.3C1.5,3.2,1.3,3.1,1.1,3.1C0.9,3,0.8,2.9,0.6,2.8C0.5,2.6,0.4,2.5,0.3,2.3
			C0.2,2.1,0.1,1.9,0.2,1.7c0-0.2,0-0.4,0.1-0.6c0.1-0.2,0.2-0.4,0.4-0.5c0.2-0.2,0.4-0.3,0.6-0.4C1.6,0,1.9,0,2.2,0
			c0.4,0,0.7,0.1,1,0.2C3.5,0.3,3.8,0.5,4,0.7L3.8,1.1z"/>
	</g>
	<g id="use1186" transform="translate(176.893 2.552)">
		<path id="path917-3" class="st3" d="M2.7,0c0.3,0,0.7,0.1,1,0.2C4,0.3,4.2,0.5,4.5,0.7C4.7,0.9,4.8,1.2,5,1.5
			c0.1,0.4,0.2,0.7,0.2,1.1c0,0.1,0,0.2-0.1,0.3C5,3,5,3,4.9,3H1c0,0.3,0.1,0.6,0.1,1c0.1,0.3,0.2,0.5,0.4,0.7
			C1.7,4.8,1.9,5,2.1,5.1c0.2,0.1,0.5,0.1,0.7,0.1c0.2,0,0.4,0,0.7-0.1C3.7,5.1,3.9,5,4,4.9c0.1-0.1,0.2-0.1,0.3-0.2
			c0.1-0.1,0.1-0.1,0.2-0.1c0.1,0,0.2,0,0.2,0.1l0.3,0.4C4.9,5.3,4.8,5.4,4.6,5.5C4.4,5.6,4.2,5.7,4,5.8C3.8,5.9,3.6,5.9,3.4,5.9
			C3.2,6,3,6,2.8,6C2.4,6,2,5.9,1.7,5.8C1.3,5.7,1,5.5,0.8,5.2c-0.3-0.3-0.5-0.6-0.6-1C0.1,3.8,0,3.3,0,2.9c0-0.4,0.1-0.8,0.2-1.1
			c0.1-0.3,0.3-0.7,0.5-0.9C1,0.6,1.3,0.4,1.6,0.2C1.9,0.1,2.3,0,2.7,0L2.7,0z M2.7,0.8c-0.4,0-0.9,0.1-1.2,0.4
			C1.3,1.5,1.1,1.9,1,2.4h3.2c0-0.2,0-0.4-0.1-0.6C4.1,1.5,4,1.4,3.8,1.2C3.7,1.1,3.5,0.9,3.4,0.9C3.2,0.8,3,0.8,2.7,0.8L2.7,0.8z"
			/>
	</g>
</g>
</svg>
